<svg width="15" height="15" viewBox="0 0 15 15" fill="none" xmlns="http://www.w3.org/2000/svg">
<path d="M7 5V1H8V5H10V6H11V3H14V14H11V12H10V13H5V12H4V14H1V3H4V6H5V5H7Z" fill="#E7E794"/>
<path d="M12 14V3H14V14H12Z" fill="#E79C21"/>
<path fill-rule="evenodd" clip-rule="evenodd" d="M7 11V12H10V11H11V7H10V6H7V5H6V7H5V10H6V11H7ZM6 10H7V8H8V7H6V10Z" fill="#E79C21"/>
<path d="M3 13V4H2V13H1V14H3V13Z" fill="#E79C21"/>
<path d="M11 6V4H12V3H14V4H12V5H14V6H12V7H14V8H12V9H14V10H12V11H14V12H12V13H14V14H11V12H10V13H5V12H4V11H5V12H10V11H11V7H10V6H8V5H10V6H11Z" fill="#6B6B00"/>
<path d="M7 11V10H8V8H9V11H7Z" fill="#6B6B00"/>
<path d="M1 6H3V5H1V6Z" fill="#6B6B00"/>
<path d="M1 8H3V7H1V8Z" fill="#6B6B00"/>
<path d="M1 9H3V10H1V9Z" fill="#6B6B00"/>
<path d="M1 11H3V12H1V11Z" fill="#6B6B00"/>
<path d="M2 14V13H4V14H2Z" fill="#6B6B00"/>
<path d="M2 4V3H4V4H2Z" fill="#6B6B00"/>
</svg>
