<svg width="15" height="15" viewBox="0 0 15 15" fill="none" xmlns="http://www.w3.org/2000/svg">
<path d="M7 5V1H8V5H10V6H11V3H14V14H11V12H10V13H5V12H4V14H1V3H4V6H5V5H7Z" fill="#E7E794"/>
<path d="M12 14V3H14V14H12Z" fill="#E79C21"/>
<path d="M2 14V3H4V4H3V13H4V14H2Z" fill="#E79C21"/>
<path fill-rule="evenodd" clip-rule="evenodd" d="M7 11V12H10V11H11V7H10V6H7V5H6V7H5V10H6V11H7ZM6 10H7V8H8V7H6V10Z" fill="#E79C21"/>
<path d="M14 4V5H12V6H14V7H12V8H14V9H12V10H14V11H12V12H14V13H12V14H11V12H10V13H5V12H4V11H5V12H10V11H11V7H10V6H8V5H10V6H11V4H14Z" fill="#6B6B00"/>
<path d="M7 11V10H8V8H9V11H7Z" fill="#6B6B00"/>
<path d="M1 4H3V5H1V4Z" fill="#6B6B00"/>
<path d="M1 6H3V7H1V6Z" fill="#6B6B00"/>
<path d="M1 8H3V9H1V8Z" fill="#6B6B00"/>
<path d="M1 10H3V11H1V10Z" fill="#6B6B00"/>
<path d="M1 12H3V13H1V12Z" fill="#6B6B00"/>
</svg>
