<svg width="15" height="15" viewBox="0 0 15 15" fill="none" xmlns="http://www.w3.org/2000/svg">
<path d="M1 4V1H12V4H9V5H10V7H14V8H10V10H9V11H12V14H1V11H3V10H2V5H3V4H1Z" fill="#E7E794"/>
<path d="M12 12H1V14H12V12Z" fill="#E79C21"/>
<path fill-rule="evenodd" clip-rule="evenodd" d="M2 7V10H3V9H4V10H9V6H8V5H4V6H3V7H2ZM4 6H7V7H8V9H5V8H4V6Z" fill="#E79C21"/>
<path d="M5 7V8H7V7H5Z" fill="#E79C21"/>
<path d="M2 4V3H11V4H12V1H1V4H2Z" fill="#E79C21"/>
<path d="M4 5V4H3V5H4Z" fill="#E79C21"/>
<path d="M2 2H1V1H12V2H11V3H10V2H9V3H8V2H7V3H6V2H5V3H4V2H3V3H2V2Z" fill="#6B6B00"/>
<path d="M9 5V7H10V5H9Z" fill="#6B6B00"/>
<path d="M9 8H10V10H9V11H12V12H11V14H10V12H9V14H8V12H7V14H6V12H5V14H4V12H3V14H2V11H3V9H4V10H9V8Z" fill="#6B6B00"/>
<path d="M7 8H5V9H8V7H7V8Z" fill="#6B6B00"/>
</svg>
