<svg width="15" height="15" viewBox="0 0 15 15" fill="none" xmlns="http://www.w3.org/2000/svg">
<path d="M14 1H3V4H6V5H5V7H1V8H5V10H6V11H3V14H14V11H12V10H13V5H12V4H14V1Z" fill="#E7E794"/>
<path d="M3 4H4V3H14V1H3V4Z" fill="#E79C21"/>
<path d="M3 14V12H14V14H3Z" fill="#E79C21"/>
<path fill-rule="evenodd" clip-rule="evenodd" d="M6 7V10H12V7H11V6H10V5H7V6H5V7H6ZM7 6H10V7H8V8H7V6Z" fill="#E79C21"/>
<path d="M4 2H3V1H14V2H13V3H14V4H13V3H12V2H11V3H10V2H9V3H8V2H7V3H6V2H5V3H4V2Z" fill="#6B6B00"/>
<path d="M11 4H12V5H13V10H12V11H14V12H13V14H12V12H11V14H10V12H9V14H8V12H7V14H6V12H5V14H4V11H6V10H5V8H6V10H11V9H8V8H10V7H11V9H12V5H11V4Z" fill="#6B6B00"/>
</svg>
