<svg width="15" height="15" viewBox="0 0 15 15" fill="none" xmlns="http://www.w3.org/2000/svg">
<path d="M4 1H1V12H4V9H5V10H7V14H8V10H10V9H11V12H14V1H11V3H10V2H5V3H4V1Z" fill="#E7E794"/>
<path fill-rule="evenodd" clip-rule="evenodd" d="M4 3V4H5V8H6V9H8V10H10V9H11V12H14V1H11V3H6V4H5V3H4ZM6 4H8V5H7V7H6V4Z" fill="#E79C21"/>
<path d="M2 1H4V2H3V11H4V12H1V11H2V1Z" fill="#E79C21"/>
<path d="M10 3H11V1H14V2H12V3H14V4H12V5H14V6H12V7H14V8H12V9H14V10H12V11H14V12H11V9H10V10H8V9H10V8H11V4H10V3Z" fill="#6B6B00"/>
<path d="M7 8V7H8V5H9V8H7Z" fill="#6B6B00"/>
<path d="M7 9V10H5V9H7Z" fill="#6B6B00"/>
<path d="M4 2H1V1H4V2Z" fill="#6B6B00"/>
<path d="M3 3H1V4H3V3Z" fill="#6B6B00"/>
<path d="M3 5H1V6H3V5Z" fill="#6B6B00"/>
<path d="M3 7H1V8H3V7Z" fill="#6B6B00"/>
<path d="M3 9H1V10H3V9Z" fill="#6B6B00"/>
<path d="M2 12V11H4V12H2Z" fill="#6B6B00"/>
</svg>
