<svg width="15" height="15" viewBox="0 0 15 15" fill="none" xmlns="http://www.w3.org/2000/svg">
<path d="M4 1H1V12H4V9H5V10H7V14H8V10H10V9H11V12H14V1H11V3H10V2H5V3H4V1Z" fill="#E7E794"/>
<path fill-rule="evenodd" clip-rule="evenodd" d="M4 3V4H5V8H6V9H8V10H10V9H11V12H14V1H11V3H6V4H5V3H4ZM6 4H8V5H7V7H6V4Z" fill="#E79C21"/>
<path d="M4 1H2V11V12H4V11H3V2H4V1Z" fill="#E79C21"/>
<path d="M11 3V1H12V2H14V3H12V4H14V5H12V6H14V7H12V8H14V9H12V10H14V11H12V12H11V9H10V10H8V9H10V8H11V4H10V3H11Z" fill="#6B6B00"/>
<path d="M8 7H7V8H9V5H8V7Z" fill="#6B6B00"/>
<path d="M5 10H7V9H5V10Z" fill="#6B6B00"/>
<path d="M3 11H1V10H3V11Z" fill="#6B6B00"/>
<path d="M3 9H1V8H3V9Z" fill="#6B6B00"/>
<path d="M3 7H1V6H3V7Z" fill="#6B6B00"/>
<path d="M3 5H1V4H3V5Z" fill="#6B6B00"/>
<path d="M3 3H1V1H2V2H3V3Z" fill="#6B6B00"/>
</svg>
