<svg width="47" height="15" viewBox="0 0 47 15" fill="none" xmlns="http://www.w3.org/2000/svg">
<path fill-rule="evenodd" clip-rule="evenodd" d="M0 7V0H6V1H7V3H6V4H7V6H6V7H0ZM8 7V2H9V1H10V0H13V1H14V2H15V7H13V5H10V7H8ZM19 1H17V0H23V1H21V7H19V1ZM27 1H25V0H31V1H29V7H27V1ZM33 7V0H35V6H39V7H33ZM41 7V0H47V1H43V3H46V4H43V6H47V7H41ZM1 1V3H5V1H1ZM1 6V4H5V6H1ZM10 4V2H11V1H12V2H13V4H10Z" fill="#B5EFEF"/>
<path d="M12 8V15H14V14H15V13H16V14H17V15H19V8H17V12H16V11H15V12H14V8H12Z" fill="#B5EFEF"/>
<path d="M23 8V15H25V8H23Z" fill="#B5EFEF"/>
<path d="M28 8V15H30V11H31V12H32V13H33V15H35V8H33V11H32V10H31V9H30V8H28Z" fill="#B5EFEF"/>
</svg>
