<svg width="31" height="15" viewBox="0 0 31 15" fill="none" xmlns="http://www.w3.org/2000/svg">
<path fill-rule="evenodd" clip-rule="evenodd" d="M2 6V7H7V3H4V4H5V6H3V5H2V2H3V1H7V0H2V1H1V2H0V5H1V6H2ZM8 2V7H10V5H13V7H15V2H14V1H13V0H10V1H9V2H8ZM16 0V7H18V4H19V5H20V4H21V7H23V0H21V1H20V2H19V1H18V0H16ZM25 0V7H31V6H27V4H30V3H27V1H31V0H25ZM13 4H10V2H11V1H12V2H13V4Z" fill="#B53121"/>
<path fill-rule="evenodd" clip-rule="evenodd" d="M1 15V14H0V9H1V8H6V9H7V14H6V15H1ZM11 15V14H10V13H9V12H8V8H10V11H11V12H12V11H13V8H15V12H14V13H13V14H12V15H11ZM17 15V8H23V9H19V11H22V12H19V14H23V15H17ZM24 15V8H30V9H31V12H29V13H30V14H31V15H28V14H27V13H26V15H24ZM2 9V14H5V9H2ZM26 12V9H29V11H28V12H26Z" fill="#B53121"/>
</svg>
