<svg width="15" height="15" viewBox="0 0 15 15" fill="none" xmlns="http://www.w3.org/2000/svg">
<path d="M1 1V0H6V1H8V0H15V6H14V8H15V15H9V14H7V15H1V14H0V9H1V7H0V1H1Z" fill="#8CD600"/>
<path fill-rule="evenodd" clip-rule="evenodd" d="M0 1V6H3V5H2V4H3V3H5V1H6V0H1V1H0ZM3 2V1H4V2H3Z" fill="#084A00"/>
<path d="M3 4V5H4V4H3Z" fill="#084A00"/>
<path d="M5 3V4H7V3H5Z" fill="#084A00"/>
<path d="M6 1V2H7V1H6Z" fill="#084A00"/>
<path fill-rule="evenodd" clip-rule="evenodd" d="M3 8H1V9H0V14H3V13H2V12H3V11H5V9H6V8H4V7H3V8ZM3 10V9H4V10H3Z" fill="#084A00"/>
<path d="M3 12V13H4V12H3Z" fill="#084A00"/>
<path d="M5 11V12H7V11H5Z" fill="#084A00"/>
<path d="M6 9V10H7V9H6Z" fill="#084A00"/>
<path fill-rule="evenodd" clip-rule="evenodd" d="M8 6V5V0H14V1H13V3H11V4H10V5H11V6H8ZM11 2V1H12V2H11Z" fill="#084A00"/>
<path d="M11 4V5H12V4H11Z" fill="#084A00"/>
<path d="M13 3V4H15V3H13Z" fill="#084A00"/>
<path d="M14 1V2H15V1H14Z" fill="#084A00"/>
<path fill-rule="evenodd" clip-rule="evenodd" d="M8 14V13V8H14V9H13V11H11V12H10V13H11V14H8ZM11 10V9H12V10H11Z" fill="#084A00"/>
<path d="M11 12V13H12V12H11Z" fill="#084A00"/>
<path d="M13 11V12H15V11H13Z" fill="#084A00"/>
<path d="M12 6V7H14V6H12Z" fill="#084A00"/>
<path d="M12 14V15H14V14H12Z" fill="#084A00"/>
<path d="M5 14V15H6V14H5Z" fill="#084A00"/>
<path d="M5 6V7H6V6H5Z" fill="#084A00"/>
<path d="M8 6V5H7V6H8Z" fill="#084A00"/>
<path d="M8 14V13H7V14H8Z" fill="#084A00"/>
</svg>
