<svg width="15" height="15" viewBox="0 0 15 15" fill="none" xmlns="http://www.w3.org/2000/svg">
<path d="M0 15V0H15V15H0Z" fill="#ADADAD"/>
<path d="M8 14V15H15V8H14V9H13V13H9V14H8Z" fill="#636363"/>
<path d="M8 7H15V0H14V1H13V5H9V6H8V7Z" fill="#636363"/>
<path d="M7 0V7H0V6H1V5H5V1H6V0H7Z" fill="#636363"/>
<path d="M7 15V8H6V9H5V13H1V14H0V15H7Z" fill="#636363"/>
<path d="M5 1H1V5H5V1Z" fill="white"/>
<path d="M13 1H9V5H13V1Z" fill="white"/>
<path d="M1 9V13H5V9H1Z" fill="white"/>
<path d="M9 9V13H13V9H9Z" fill="white"/>
</svg>
