<svg width="15" height="15" viewBox="0 0 15 15" fill="none" xmlns="http://www.w3.org/2000/svg">
<path d="M15 0H0V15H15V0Z" fill="#636363"/>
<path d="M4 2V0H5V2H4Z" fill="#6B0800"/>
<path d="M12 2V0H13V2H12Z" fill="#6B0800"/>
<path d="M9 4H15V3H8V6H9V4Z" fill="#6B0800"/>
<path d="M7 3V4H1V6H0V3H7Z" fill="#6B0800"/>
<path d="M3 7H0V8H3V7Z" fill="#6B0800"/>
<path d="M4 7V10H5V8H11V7H4Z" fill="#6B0800"/>
<path d="M12 10H13V8H15V7H12V10Z" fill="#6B0800"/>
<path d="M8 14H9V12H15V11H8V14Z" fill="#6B0800"/>
<path d="M7 11V12H1V14H0V11H7Z" fill="#6B0800"/>
<path d="M3 2H0V0H3V2Z" fill="#9C4A00"/>
<path d="M5 2V0H11V2H5Z" fill="#9C4A00"/>
<path d="M13 2V0H15V2H13Z" fill="#9C4A00"/>
<path d="M9 4H15V6H9V4Z" fill="#9C4A00"/>
<path d="M1 4H7V6H1V4Z" fill="#9C4A00"/>
<path d="M3 8H0V10H3V8Z" fill="#9C4A00"/>
<path d="M5 10V8H11V10H5Z" fill="#9C4A00"/>
<path d="M13 10V8H15V10H13Z" fill="#9C4A00"/>
<path d="M9 12H15V14H9V12Z" fill="#9C4A00"/>
<path d="M1 12H7V14H1V12Z" fill="#9C4A00"/>
</svg>
