<svg width="15" height="15" viewBox="0 0 15 15" fill="none" xmlns="http://www.w3.org/2000/svg">
<path fill-rule="evenodd" clip-rule="evenodd" d="M3 3H2V5H3V6H4V7H2V8H4V10H3V11H2V12H4V11H5V13H6V12H7V11H8V12H9V13H10V11H12V12H13V10H12V9H11V8H12V7H13V6H11V5H12V3H13V2H12V3H11V4H10V3H9V5H8V4H7V2H6V5H5V4H3V3ZM5 11V10H6V11H5ZM6 9V8H7V9H6ZM8 8V7H9V8H8Z" fill="#FFFFFE"/>
<path d="M6 4H7V5H9V6H7V5H6V4Z" fill="#590D79"/>
<path d="M11 5V4H12V5H11V7H12V8H11V9H12V10H13V11H12V10H11V11H10V10H11V9H10V5H11Z" fill="#590D79"/>
<path d="M9 12H10V13H9V12H8V11H7V10H8V9H9V10H8V11H9V12Z" fill="#590D79"/>
<path d="M5 11H6V12H5V11H4V12H3V11H4V10H5V11Z" fill="#590D79"/>
<path d="M4 8H5V7H4V6H3V5H2V4H3V5H5V7H6V8H5V9H4V8Z" fill="#590D79"/>
<path fill-rule="evenodd" clip-rule="evenodd" d="M6 6V7H7V9H9V8H10V7H9V6H8V7H7V6H6ZM8 7V8H9V7H8Z" fill="#B53121"/>
<path d="M7 10V9H6V10H7Z" fill="#B53121"/>
<path d="M10 9H9V10H10V9Z" fill="#B53121"/>
</svg>
