<svg width="15" height="15" viewBox="0 0 15 15" fill="none" xmlns="http://www.w3.org/2000/svg">
<path fill-rule="evenodd" clip-rule="evenodd" d="M1 2H0V4H1V5H2V6H3V7H2V9H1V8H0V9H1V10H3V12H2V14H1V15H3V14H5V15H6V14H7V13H8V14H9V15H11V14H10V12H11V13H13V14H14V12H13V11H12V9H13V8H14V7H12V5H13V4H14V2H13V3H11V4H10V1H9V2H8V4H7V2H6V1H5V4H3V3H1V2ZM5 8H6V9H5V8ZM6 6H7V7H6V6ZM10 8H9V7H10V8ZM9 8V9H8V8H9ZM7 10H8V11H7V10Z" fill="#FFFFFE"/>
<path d="M3 2V3H4V2H3Z" fill="#590D79"/>
<path d="M5 2V1H6V2H7V3H6V5H4V4H5V3H6V2H5Z" fill="#590D79"/>
<path d="M9 2H10V5H9V6H8V5H9V2Z" fill="#590D79"/>
<path d="M11 5V4H13V3H14V4H13V5H14V6H13V5H11Z" fill="#590D79"/>
<path d="M10 6H12V7H11V8H13V9H14V10H13V9H12V10H10V9H11V8H10V6Z" fill="#590D79"/>
<path d="M10 11H11V12H13V13H14V14H13V13H11V12H10V11Z" fill="#590D79"/>
<path d="M9 10H8V11H9V10Z" fill="#590D79"/>
<path d="M6 10H7V11H6V10H5V9H6V10Z" fill="#590D79"/>
<path d="M1 9H3V8H4V9H3V10H1V9Z" fill="#590D79"/>
<path d="M1 6H0V7H1V6Z" fill="#590D79"/>
<path d="M4 7H3V6H2V5H1V4H0V3H1V4H3V6H4V7Z" fill="#590D79"/>
<path fill-rule="evenodd" clip-rule="evenodd" d="M6 12V14H7V15H8V14H9V15H11V14H9V13H8V12H6ZM8 13H7V14H8V13Z" fill="#590D79"/>
<path fill-rule="evenodd" clip-rule="evenodd" d="M3 13V14H2V15H3V14H5V12H4V11H3V12H2V11H1V12H2V13H3ZM3 13V12H4V13H3Z" fill="#590D79"/>
<path d="M4 11V10H5V11H6V12H5V11H4Z" fill="#B53121"/>
<path d="M6 10V7H5V6H4V5H5V6H6V7H7V6H8V7H9V8H8V9H9V10H6Z" fill="#B53121"/>
<path d="M9 6V5H10V6H9Z" fill="#B53121"/>
<path d="M10 10H11V11H10V12H9V11H10V10Z" fill="#B53121"/>
</svg>
