<svg width="15" height="15" viewBox="0 0 15 15" fill="none" xmlns="http://www.w3.org/2000/svg">
<path fill-rule="evenodd" clip-rule="evenodd" d="M14 10V5H13V4H11V5H10V10H11V11H13V10H14ZM13 10H11V5H13V10Z" fill="#FFFFFE"/>
<path fill-rule="evenodd" clip-rule="evenodd" d="M9 10V5H8V4H6V5H5V10H6V11H8V10H9ZM8 10H6V5H8V10Z" fill="#FFFFFE"/>
<path d="M4 5V7H3V5H4Z" fill="#FFFFFE"/>
<path d="M3 5V4H1V5H3Z" fill="#FFFFFE"/>
<path d="M1 5H0V6H1V5Z" fill="#FFFFFE"/>
<path d="M3 8V7H2V8H3Z" fill="#FFFFFE"/>
<path d="M2 9V8H1V9H2Z" fill="#FFFFFE"/>
<path d="M1 9H0V11H4V10H1V9Z" fill="#FFFFFE"/>
</svg>
