<svg width="120" height="30" viewBox="0 0 120 30" fill="none" xmlns="http://www.w3.org/2000/svg">
<path d="M7 5V1H8V5H10V6H11V3H14V14H11V12H10V13H5V12H4V14H1V3H4V6H5V5H7Z" fill="#E7E794"/>
<path d="M12 14V3H14V14H12Z" fill="#E79C21"/>
<path d="M2 14V3H4V4H3V13H4V14H2Z" fill="#E79C21"/>
<path fill-rule="evenodd" clip-rule="evenodd" d="M7 11V12H10V11H11V7H10V6H7V5H6V7H5V10H6V11H7ZM6 10H7V8H8V7H6V10Z" fill="#E79C21"/>
<path d="M14 4V5H12V6H14V7H12V8H14V9H12V10H14V11H12V12H14V13H12V14H11V12H10V13H5V12H4V11H5V12H10V11H11V7H10V6H8V5H10V6H11V4H14Z" fill="#6B6B00"/>
<path d="M7 11V10H8V8H9V11H7Z" fill="#6B6B00"/>
<path d="M1 4H3V5H1V4Z" fill="#6B6B00"/>
<path d="M1 6H3V7H1V6Z" fill="#6B6B00"/>
<path d="M1 8H3V9H1V8Z" fill="#6B6B00"/>
<path d="M1 10H3V11H1V10Z" fill="#6B6B00"/>
<path d="M1 12H3V13H1V12Z" fill="#6B6B00"/>
<path d="M22 5V1H23V5H25V6H26V3H29V14H26V12H25V13H20V12H19V14H16V3H19V6H20V5H22Z" fill="#E7E794"/>
<path d="M27 14V3H29V14H27Z" fill="#E79C21"/>
<path fill-rule="evenodd" clip-rule="evenodd" d="M22 11V12H25V11H26V7H25V6H22V5H21V7H20V10H21V11H22ZM21 10H22V8H23V7H21V10Z" fill="#E79C21"/>
<path d="M18 13V4H17V13H16V14H18V13Z" fill="#E79C21"/>
<path d="M26 6V4H27V3H29V4H27V5H29V6H27V7H29V8H27V9H29V10H27V11H29V12H27V13H29V14H26V12H25V13H20V12H19V11H20V12H25V11H26V7H25V6H23V5H25V6H26Z" fill="#6B6B00"/>
<path d="M22 11V10H23V8H24V11H22Z" fill="#6B6B00"/>
<path d="M16 6H18V5H16V6Z" fill="#6B6B00"/>
<path d="M16 8H18V7H16V8Z" fill="#6B6B00"/>
<path d="M16 9H18V10H16V9Z" fill="#6B6B00"/>
<path d="M16 11H18V12H16V11Z" fill="#6B6B00"/>
<path d="M17 14V13H19V14H17Z" fill="#6B6B00"/>
<path d="M17 4V3H19V4H17Z" fill="#6B6B00"/>
<path d="M44 1H33V4H36V5H35V7H31V8H35V10H36V11H33V14H44V11H42V10H43V5H42V4H44V1Z" fill="#E7E794"/>
<path d="M33 4H34V3H44V1H33V4Z" fill="#E79C21"/>
<path d="M33 14V12H44V14H33Z" fill="#E79C21"/>
<path fill-rule="evenodd" clip-rule="evenodd" d="M36 7V10H42V7H41V6H40V5H37V6H35V7H36ZM37 6H40V7H38V8H37V6Z" fill="#E79C21"/>
<path d="M34 2H33V1H44V2H43V3H44V4H43V3H42V2H41V3H40V2H39V3H38V2H37V3H36V2H35V3H34V2Z" fill="#6B6B00"/>
<path d="M41 4H42V5H43V10H42V11H44V12H43V14H42V12H41V14H40V12H39V14H38V12H37V14H36V12H35V14H34V11H36V10H35V8H36V10H41V9H38V8H40V7H41V9H42V5H41V4Z" fill="#6B6B00"/>
<path d="M59 1H48V4H51V5H50V7H46V8H50V10H51V11H48V14H59V11H57V10H58V5H57V4H59V1Z" fill="#E7E794"/>
<path d="M48 4H49V3H59V1H48V4Z" fill="#E79C21"/>
<path d="M48 14V12H59V14H48Z" fill="#E79C21"/>
<path fill-rule="evenodd" clip-rule="evenodd" d="M51 7V10H57V7H56V6H55V5H52V6H50V7H51ZM52 6H55V7H53V8H52V6Z" fill="#E79C21"/>
<path d="M49 4H48V1H58V2H59V4H58V2H57V3H56V2H55V3H54V2H53V3H52V2H51V3H50V2H49V4Z" fill="#6B6B00"/>
<path d="M56 4H57V5H58V10H57V11H59V14H58V12H57V14H56V12H55V14H54V12H53V14H52V12H51V14H50V12H49V14H48V12H49V11H51V10H50V8H51V10H56V9H53V8H55V7H56V9H57V5H56V4Z" fill="#6B6B00"/>
<path d="M64 1H61V12H64V9H65V10H67V14H68V10H70V9H71V12H74V1H71V3H70V2H65V3H64V1Z" fill="#E7E794"/>
<path fill-rule="evenodd" clip-rule="evenodd" d="M64 3V4H65V8H66V9H68V10H70V9H71V12H74V1H71V3H66V4H65V3H64ZM66 4H68V5H67V7H66V4Z" fill="#E79C21"/>
<path d="M64 1H62V11V12H64V11H63V2H64V1Z" fill="#E79C21"/>
<path d="M71 3V1H72V2H74V3H72V4H74V5H72V6H74V7H72V8H74V9H72V10H74V11H72V12H71V9H70V10H68V9H70V8H71V4H70V3H71Z" fill="#6B6B00"/>
<path d="M68 7H67V8H69V5H68V7Z" fill="#6B6B00"/>
<path d="M65 10H67V9H65V10Z" fill="#6B6B00"/>
<path d="M63 11H61V10H63V11Z" fill="#6B6B00"/>
<path d="M63 9H61V8H63V9Z" fill="#6B6B00"/>
<path d="M63 7H61V6H63V7Z" fill="#6B6B00"/>
<path d="M63 5H61V4H63V5Z" fill="#6B6B00"/>
<path d="M63 3H61V1H62V2H63V3Z" fill="#6B6B00"/>
<path d="M79 1H76V12H79V9H80V10H82V14H83V10H85V9H86V12H89V1H86V3H85V2H80V3H79V1Z" fill="#E7E794"/>
<path fill-rule="evenodd" clip-rule="evenodd" d="M79 3V4H80V8H81V9H83V10H85V9H86V12H89V1H86V3H81V4H80V3H79ZM81 4H83V5H82V7H81V4Z" fill="#E79C21"/>
<path d="M77 1H79V2H78V11H79V12H76V11H77V1Z" fill="#E79C21"/>
<path d="M85 3H86V1H89V2H87V3H89V4H87V5H89V6H87V7H89V8H87V9H89V10H87V11H89V12H86V9H85V10H83V9H85V8H86V4H85V3Z" fill="#6B6B00"/>
<path d="M82 8V7H83V5H84V8H82Z" fill="#6B6B00"/>
<path d="M82 9V10H80V9H82Z" fill="#6B6B00"/>
<path d="M79 2H76V1H79V2Z" fill="#6B6B00"/>
<path d="M78 3H76V4H78V3Z" fill="#6B6B00"/>
<path d="M78 5H76V6H78V5Z" fill="#6B6B00"/>
<path d="M78 7H76V8H78V7Z" fill="#6B6B00"/>
<path d="M78 9H76V10H78V9Z" fill="#6B6B00"/>
<path d="M77 12V11H79V12H77Z" fill="#6B6B00"/>
<path d="M91 4V1H102V4H99V5H100V7H104V8H100V10H99V11H102V14H91V11H93V10H92V5H93V4H91Z" fill="#E7E794"/>
<path d="M102 12H91V14H102V12Z" fill="#E79C21"/>
<path fill-rule="evenodd" clip-rule="evenodd" d="M92 7V10H93V9H94V10H99V6H98V5H94V6H93V7H92ZM94 6H97V7H98V9H95V8H94V6Z" fill="#E79C21"/>
<path d="M95 7V8H97V7H95Z" fill="#E79C21"/>
<path d="M92 4V3H101V4H102V1H91V4H92Z" fill="#E79C21"/>
<path d="M94 5V4H93V5H94Z" fill="#E79C21"/>
<path d="M92 2H91V1H102V2H101V3H100V2H99V3H98V2H97V3H96V2H95V3H94V2H93V3H92V2Z" fill="#6B6B00"/>
<path d="M99 5V7H100V5H99Z" fill="#6B6B00"/>
<path d="M99 8H100V10H99V11H102V12H101V14H100V12H99V14H98V12H97V14H96V12H95V14H94V12H93V14H92V11H93V9H94V10H99V8Z" fill="#6B6B00"/>
<path d="M97 8H95V9H98V7H97V8Z" fill="#6B6B00"/>
<path d="M106 4V1H117V4H114V5H115V7H119V8H115V10H114V11H117V14H106V11H108V10H107V5H108V4H106Z" fill="#E7E794"/>
<path d="M117 12H106V14H117V12Z" fill="#E79C21"/>
<path fill-rule="evenodd" clip-rule="evenodd" d="M107 7V10H108V9H109V10H114V6H113V5H109V6H108V7H107ZM109 6H112V7H113V9H110V8H109V6Z" fill="#E79C21"/>
<path d="M110 7V8H112V7H110Z" fill="#E79C21"/>
<path d="M107 4V3H116V4H117V1H106V4H107Z" fill="#E79C21"/>
<path d="M109 5V4H108V5H109Z" fill="#E79C21"/>
<path d="M107 2V4H106V1H116V2H117V4H116V2H115V3H114V2H113V3H112V2H111V3H110V2H109V3H108V2H107Z" fill="#6B6B00"/>
<path d="M114 5V7H115V5H114Z" fill="#6B6B00"/>
<path d="M114 8H115V10H114V11H117V14H116V12H115V14H114V12H113V14H112V12H111V14H110V12H109V14H108V12H107V14H106V12H107V11H108V9H109V10H114V8Z" fill="#6B6B00"/>
<path d="M112 8H110V9H113V7H112V8Z" fill="#6B6B00"/>
<path fill-rule="evenodd" clip-rule="evenodd" d="M0.999985 17.9999V29.9999L4 30V29H11V30L14 30V17.9999H11V19H9V17.9999H8V15H7V17.9999H6V19H4V17.9999H0.999985Z" fill="#E7E794"/>
<path d="M3.99998 17.9999V18.9999H3V20H3.99998V28H3V29H3.99998V30H2V19V18L3.99998 17.9999Z" fill="#E79C21"/>
<path d="M14 18H12V29H11V30H14V18Z" fill="#E79C21"/>
<path fill-rule="evenodd" clip-rule="evenodd" d="M7 20H6V22H5V27H6V28H9V27H10V22H9V20H8V21H7V20ZM6 22V26H7V23H8V22H6Z" fill="#E79C21"/>
<path d="M0.999985 28.9999H3.99998V28H9V27H7V26H8V23H9V27H10V22H9V20H8V18H9V19H14V20H12V21H14V22H12V23H14V24H12V25H14V26H12V27H14V28H12V28.9999H14V30H11V28.9999H3.99998V30H0.999985V28.9999Z" fill="#6B6B00"/>
<path d="M3 28H0.999985V27H3V28Z" fill="#6B6B00"/>
<path d="M3 26H0.999985V25H3V26Z" fill="#6B6B00"/>
<path d="M3 24H0.999985V23H3V24Z" fill="#6B6B00"/>
<path d="M3 22H0.999985V21H3V22Z" fill="#6B6B00"/>
<path d="M3 20H0.999985V19H3V20Z" fill="#6B6B00"/>
<path d="M7 18H6V20H7V18Z" fill="#6B6B00"/>
<path fill-rule="evenodd" clip-rule="evenodd" d="M16 17.9999V29.9999L19 30V29H26V30L29 30V17.9999H26V19H24V17.9999H23V15H22V17.9999H21V19H19V17.9999H16Z" fill="#E7E794"/>
<path d="M29 18.0001H27V29.0001H26V30.0001H29V18.0001Z" fill="#E79C21"/>
<path fill-rule="evenodd" clip-rule="evenodd" d="M22 20.0001H21V22.0001H20V27.0001H21V28.0001H24V27.0001H25V22.0001H24V20.0001H23V21.0001H22V20.0001ZM21 22.0001V26.0001H22V23.0001H23V22.0001H21Z" fill="#E79C21"/>
<path d="M19 19V18L16 18.0001V19.0001H17V30.0001H19V29.0001H18V28.0001H19V20.0001H18V19H19Z" fill="#E79C21"/>
<path d="M27 19V18H29V19H27V20H29V21H27V22H29V23H27V24H29V25H27V26H29V27H27V28H29V29H19V28H24V27H22V26H23V23H24V27H25V22H24V20H23V18H24V19H27Z" fill="#6B6B00"/>
<path d="M21 20V18H22V20H21Z" fill="#6B6B00"/>
<path d="M17 19V18H19V19H17Z" fill="#6B6B00"/>
<path d="M18 20H16V21H18V20Z" fill="#6B6B00"/>
<path d="M18 22H16V23H18V22Z" fill="#6B6B00"/>
<path d="M18 24H16V25H18V24Z" fill="#6B6B00"/>
<path d="M18 26H16V27H18V26Z" fill="#6B6B00"/>
<path d="M18 28H16V29H18V28Z" fill="#6B6B00"/>
<path d="M33 16H45V19H44V26H45V29H33V26H34V24H33V23H30V22H33V21H34V19H33V16Z" fill="#E7E794"/>
<path d="M33 27H45V29H33V27Z" fill="#E79C21"/>
<path fill-rule="evenodd" clip-rule="evenodd" d="M42 19V20H36V21H33V22H36V23H35V24H36V25H42V24H43V19H42ZM37 23V21H41V22H38V23H37Z" fill="#E79C21"/>
<path d="M33 19H34V18H35V19H42V18H44V19H45V17H33V19Z" fill="#E79C21"/>
<path d="M34 18V16H35V18H34Z" fill="#6B6B00"/>
<path d="M36 18V16H37V18H36Z" fill="#6B6B00"/>
<path d="M38 18V16H39V18H38Z" fill="#6B6B00"/>
<path d="M40 18V16H41V18H40Z" fill="#6B6B00"/>
<path d="M42 18V16H43V18H42Z" fill="#6B6B00"/>
<path d="M44 16H45V19H44V26H45V29H44V27H43V29H42V27H41V29H40V27H39V29H38V27H37V29H36V27H35V29H34V24H33V23H35V24H36V25H42V24H38V23H41V22H42V24H43V21H42V20H43V19H44V16Z" fill="#6B6B00"/>
<path d="M48 16H60V19H59V26H60V29H48V26H49V24H48V23H45V22H48V21H49V19H48V16Z" fill="#E7E794"/>
<path d="M48 27H60V29H48V27Z" fill="#E79C21"/>
<path fill-rule="evenodd" clip-rule="evenodd" d="M57 19V20H51V21H48V22H51V23H50V24H51V25H57V24H58V19H57ZM52 23V21H56V22H53V23H52Z" fill="#E79C21"/>
<path d="M48 19H49V18H50V19H57V18H58V19H59H60V17H48V19Z" fill="#E79C21"/>
<path d="M48 19H49V17H48V19Z" fill="#6B6B00"/>
<path d="M50 16V18H51V16H50Z" fill="#6B6B00"/>
<path d="M52 16V18H53V16H52Z" fill="#6B6B00"/>
<path d="M54 16V18H55V16H54Z" fill="#6B6B00"/>
<path d="M56 16V18H57V16H56Z" fill="#6B6B00"/>
<path d="M58 16V18H59V16H58Z" fill="#6B6B00"/>
<path d="M58 19H59V26H60V27H59V29H58V27H57V29H56V27H55V29H54V27H53V29H52V27H51V29H50V27H49V29H48V27H49V24H48V23H50V24H51V25H57V24H53V23H56V22H57V24H58V19Z" fill="#6B6B00"/>
<path d="M64 15H61V27H64V26H66V27H67V30H68V27H69V26H71V27H74V15H71V16H64V15Z" fill="#E7E794"/>
<path d="M72 26H71V27H74V15H72V26Z" fill="#E79C21"/>
<path fill-rule="evenodd" clip-rule="evenodd" d="M68 25H69V24H70V17H66V18H65V23H66V25H67V24H68V25ZM66 18H68V19H67V22H66V18Z" fill="#E79C21"/>
<path d="M64 27H62V26V15H64V16H63V17H64V25H63V26H64V27Z" fill="#E79C21"/>
<path d="M64 15H61V16H64V15Z" fill="#6B6B00"/>
<path d="M63 17H61V18H63V17Z" fill="#6B6B00"/>
<path d="M61 20V19H63V20H61Z" fill="#6B6B00"/>
<path d="M61 22V21H63V22H61Z" fill="#6B6B00"/>
<path d="M63 23H61V24H63V23Z" fill="#6B6B00"/>
<path d="M63 25H61V26H63V25Z" fill="#6B6B00"/>
<path d="M65 25V26H66V27H67V25H65Z" fill="#6B6B00"/>
<path d="M67 23V22H68V19H69V23H67Z" fill="#6B6B00"/>
<path d="M69 27H68V25H69V24H70V17H71V16H72V15H74V16H72V17H74V18H72V19H74V20H72V21H74V22H72V23H74V24H72V25H74V26H69V27Z" fill="#6B6B00"/>
<path d="M79 15H76V27H79V26H81V27H82V30H83V27H84V26H86V27H89V15H86V16H79V15Z" fill="#E7E794"/>
<path d="M87 26H86V27H89V15H87V26Z" fill="#E79C21"/>
<path fill-rule="evenodd" clip-rule="evenodd" d="M83 25H84V24H85V17H81V18H80V23H81V25H82V24H83V25ZM81 18H83V19H82V22H81V18Z" fill="#E79C21"/>
<path d="M76 27V26H77V15H79V16H78V17H79V25H78V26H79V27H76Z" fill="#E79C21"/>
<path d="M77 26V27H79V26H77Z" fill="#6B6B00"/>
<path d="M78 24V25H76V24H78Z" fill="#6B6B00"/>
<path d="M76 23H78V22H76V23Z" fill="#6B6B00"/>
<path d="M78 21H76V20H78V21Z" fill="#6B6B00"/>
<path d="M78 19H76V18H78V19Z" fill="#6B6B00"/>
<path d="M78 17H76V16H78V17Z" fill="#6B6B00"/>
<path d="M80 25V26H81V27H82V25H80Z" fill="#6B6B00"/>
<path d="M82 23V22H83V19H84V23H82Z" fill="#6B6B00"/>
<path d="M83 27V25H84V24H85V17H86V16H89V17H87V18H89V19H87V20H89V21H87V22H89V23H87V24H89V25H87V26H89V27H87V26H84V27H83Z" fill="#6B6B00"/>
<path d="M102 16H90V19H91V26H90V29H102V26H101V24H102V23H105V22H102V21H101V19H102V16Z" fill="#E7E794"/>
<path fill-rule="evenodd" clip-rule="evenodd" d="M100 20H101V22H99V23H100V24H98V25H92V24H91V21H92V20H98V21H100V20ZM93 23V21H97V22H94V23H93Z" fill="#E79C21"/>
<path d="M91 17H101H102V19H101V18H100V19H92V18H91V19H90V16H91V17Z" fill="#E79C21"/>
<path d="M90 26H91V27H101V26H102V29H90V26Z" fill="#E79C21"/>
<path d="M94 23H97V22H98V24H100V23H102V24H101V26H102V27H101V29H100V27H99V29H98V27H97V29H96V27H95V29H94V27H93V29H92V27H91V29H90V27H91V24H92V25H98V24H94V23Z" fill="#6B6B00"/>
<path d="M90 17H91V19H90V17Z" fill="#6B6B00"/>
<path d="M92 18V16H93V18H92Z" fill="#6B6B00"/>
<path d="M94 18V16H95V18H94Z" fill="#6B6B00"/>
<path d="M96 18V16H97V18H96Z" fill="#6B6B00"/>
<path d="M98 18V16H99V18H98Z" fill="#6B6B00"/>
<path d="M100 18V16H101V18H100Z" fill="#6B6B00"/>
<path d="M102 21H101V22H102V21Z" fill="#6B6B00"/>
<path d="M117 16H105V19H106V26H105V29H117V26H116V24H117V23H120V22H117V21H116V19H117V16Z" fill="#E7E794"/>
<path fill-rule="evenodd" clip-rule="evenodd" d="M115 20H116V22H114V23H115V24H113V25H107V24H106V21H107V20H113V21H115V20ZM108 23V21H112V22H109V23H108Z" fill="#E79C21"/>
<path d="M106 27H105V29H117V26H116V27H106Z" fill="#E79C21"/>
<path d="M105 17H106H116V16H117V19H116V18H115V19H107V18H106V19H105V17Z" fill="#E79C21"/>
<path d="M106 16V18H107V16H106Z" fill="#6B6B00"/>
<path d="M108 16V18H109V16H108Z" fill="#6B6B00"/>
<path d="M110 16V18H111V16H110Z" fill="#6B6B00"/>
<path d="M112 18V16H113V18H112Z" fill="#6B6B00"/>
<path d="M114 18V16H115V18H114Z" fill="#6B6B00"/>
<path d="M116 19V17H117V19H116Z" fill="#6B6B00"/>
<path d="M117 21H116V22H117V21Z" fill="#6B6B00"/>
<path d="M109 23H112V22H113V24H115V23H117V24H116V27H117V29H116V27H115V29H114V27H113V29H112V27H111V29H110V27H109V29H108V27H107V29H106V24H107V25H113V24H109V23Z" fill="#6B6B00"/>
</svg>
