<svg width="15" height="15" viewBox="0 0 15 15" fill="none" xmlns="http://www.w3.org/2000/svg">
<path d="M4 0H1V12H4V11H6V12H7V15H8V12H9V11H11V12H14V0H11V1H4V0Z" fill="#E7E794"/>
<path d="M12 11H11V12H14V0H12V11Z" fill="#E79C21"/>
<path fill-rule="evenodd" clip-rule="evenodd" d="M8 10H9V9H10V2H6V3H5V8H6V10H7V9H8V10ZM6 3H8V4H7V7H6V3Z" fill="#E79C21"/>
<path d="M4 12H2V11V0H4V1H3V2H4V10H3V11H4V12Z" fill="#E79C21"/>
<path d="M4 0H1V1H4V0Z" fill="#6B6B00"/>
<path d="M3 2H1V3H3V2Z" fill="#6B6B00"/>
<path d="M1 5V4H3V5H1Z" fill="#6B6B00"/>
<path d="M1 7V6H3V7H1Z" fill="#6B6B00"/>
<path d="M3 8H1V9H3V8Z" fill="#6B6B00"/>
<path d="M3 10H1V11H3V10Z" fill="#6B6B00"/>
<path d="M5 10V11H6V12H7V10H5Z" fill="#6B6B00"/>
<path d="M7 8V7H8V4H9V8H7Z" fill="#6B6B00"/>
<path d="M9 12H8V10H9V9H10V2H11V1H12V0H14V1H12V2H14V3H12V4H14V5H12V6H14V7H12V8H14V9H12V10H14V11H9V12Z" fill="#6B6B00"/>
</svg>
