<svg width="15" height="15" viewBox="0 0 15 15" fill="none" xmlns="http://www.w3.org/2000/svg">
<path d="M4 0H1V12H4V11H6V12H7V15H8V12H9V11H11V12H14V0H11V1H4V0Z" fill="#E7E794"/>
<path d="M12 11H11V12H14V0H12V11Z" fill="#E79C21"/>
<path fill-rule="evenodd" clip-rule="evenodd" d="M8 10H9V9H10V2H6V3H5V8H6V10H7V9H8V10ZM6 3H8V4H7V7H6V3Z" fill="#E79C21"/>
<path d="M1 12V11H2V0H4V1H3V2H4V10H3V11H4V12H1Z" fill="#E79C21"/>
<path d="M2 11V12H4V11H2Z" fill="#6B6B00"/>
<path d="M3 9V10H1V9H3Z" fill="#6B6B00"/>
<path d="M1 8H3V7H1V8Z" fill="#6B6B00"/>
<path d="M3 6H1V5H3V6Z" fill="#6B6B00"/>
<path d="M3 4H1V3H3V4Z" fill="#6B6B00"/>
<path d="M3 2H1V1H3V2Z" fill="#6B6B00"/>
<path d="M5 10V11H6V12H7V10H5Z" fill="#6B6B00"/>
<path d="M7 8V7H8V4H9V8H7Z" fill="#6B6B00"/>
<path d="M8 12V10H9V9H10V2H11V1H14V2H12V3H14V4H12V5H14V6H12V7H14V8H12V9H14V10H12V11H14V12H12V11H9V12H8Z" fill="#6B6B00"/>
</svg>
