<svg width="15" height="15" viewBox="0 0 15 15" fill="none" xmlns="http://www.w3.org/2000/svg">
<path d="M3 1H15V4H14V11H15V14H3V11H4V9H3V8H0V7H3V6H4V4H3V1Z" fill="#E7E794"/>
<path d="M3 12H15V14H3V12Z" fill="#E79C21"/>
<path fill-rule="evenodd" clip-rule="evenodd" d="M12 4V5H6V6H3V7H6V8H5V9H6V10H12V9H13V4H12ZM7 8V6H11V7H8V8H7Z" fill="#E79C21"/>
<path d="M3 4H4V3H5V4H12V3H13V4H14H15V2H3V4Z" fill="#E79C21"/>
<path d="M3 4H4V2H3V4Z" fill="#6B6B00"/>
<path d="M5 1V3H6V1H5Z" fill="#6B6B00"/>
<path d="M7 1V3H8V1H7Z" fill="#6B6B00"/>
<path d="M9 1V3H10V1H9Z" fill="#6B6B00"/>
<path d="M11 1V3H12V1H11Z" fill="#6B6B00"/>
<path d="M13 1V3H14V1H13Z" fill="#6B6B00"/>
<path d="M13 4H14V11H15V12H14V14H13V12H12V14H11V12H10V14H9V12H8V14H7V12H6V14H5V12H4V14H3V12H4V9H3V8H5V9H6V10H12V9H8V8H11V7H12V9H13V4Z" fill="#6B6B00"/>
</svg>
