<svg width="15" height="15" viewBox="0 0 15 15" fill="none" xmlns="http://www.w3.org/2000/svg">
<path d="M12 1H0V4H1V11H0V14H12V11H11V9H12V8H15V7H12V6H11V4H12V1Z" fill="#E7E794"/>
<path fill-rule="evenodd" clip-rule="evenodd" d="M10 5H11V7H9V8H10V9H8V10H2V9H1V6H2V5H8V6H10V5ZM3 8V6H7V7H4V8H3Z" fill="#E79C21"/>
<path d="M1 2H11H12V4H11V3H10V4H2V3H1V4H0V1H1V2Z" fill="#E79C21"/>
<path d="M0 11H1V12H11V11H12V14H0V11Z" fill="#E79C21"/>
<path d="M4 8H7V7H8V9H10V8H12V9H11V11H12V12H11V14H10V12H9V14H8V12H7V14H6V12H5V14H4V12H3V14H2V12H1V14H0V12H1V9H2V10H8V9H4V8Z" fill="#6B6B00"/>
<path d="M0 2H1V4H0V2Z" fill="#6B6B00"/>
<path d="M2 3V1H3V3H2Z" fill="#6B6B00"/>
<path d="M4 3V1H5V3H4Z" fill="#6B6B00"/>
<path d="M6 3V1H7V3H6Z" fill="#6B6B00"/>
<path d="M8 3V1H9V3H8Z" fill="#6B6B00"/>
<path d="M10 3V1H11V3H10Z" fill="#6B6B00"/>
<path d="M12 6H11V7H12V6Z" fill="#6B6B00"/>
</svg>
