<svg width="15" height="15" viewBox="0 0 15 15" fill="none" xmlns="http://www.w3.org/2000/svg">
<path d="M3 1H15V4H14V11H15V14H3V11H4V9H3V8H0V7H3V6H4V4H3V1Z" fill="#E7E794"/>
<path d="M3 12H15V14H3V12Z" fill="#E79C21"/>
<path fill-rule="evenodd" clip-rule="evenodd" d="M12 4V5H6V6H3V7H6V8H5V9H6V10H12V9H13V4H12ZM7 8V6H11V7H8V8H7Z" fill="#E79C21"/>
<path d="M3 4H4V3H5V4H12V3H14V4H15V2H3V4Z" fill="#E79C21"/>
<path d="M4 3V1H5V3H4Z" fill="#6B6B00"/>
<path d="M6 3V1H7V3H6Z" fill="#6B6B00"/>
<path d="M8 3V1H9V3H8Z" fill="#6B6B00"/>
<path d="M10 3V1H11V3H10Z" fill="#6B6B00"/>
<path d="M12 3V1H13V3H12Z" fill="#6B6B00"/>
<path d="M14 1H15V4H14V11H15V14H14V12H13V14H12V12H11V14H10V12H9V14H8V12H7V14H6V12H5V14H4V9H3V8H5V9H6V10H12V9H8V8H11V7H12V9H13V6H12V5H13V4H14V1Z" fill="#6B6B00"/>
</svg>
