<svg width="15" height="15" viewBox="0 0 15 15" fill="none" xmlns="http://www.w3.org/2000/svg">
<path fill-rule="evenodd" clip-rule="evenodd" d="M1 2.99994V14.9999L4.00002 15V14H11V15L14 15V2.99994H11V4H9.00002V2.99994H8.00002V0L7.00002 0V2.99994H6.00002V4H4.00002V2.99994H1Z" fill="#E7E794"/>
<path d="M14 3.00006H12V14.0001H11V15.0001H14V3.00006Z" fill="#E79C21"/>
<path fill-rule="evenodd" clip-rule="evenodd" d="M7 5.00006H6V7.00006H5V12.0001H6V13.0001H9V12.0001H10V7.00006H9V5.00006H8V6.00006H7V5.00006ZM6 7.00006V11.0001H7V8.00006H8V7.00006H6Z" fill="#E79C21"/>
<path d="M3.99998 4V3L1 3.00006V4.00006H2V15.0001H3.99998V14.0001H3V13.0001H3.99998V5.00006H3V4H3.99998Z" fill="#E79C21"/>
<path d="M12 4V3H14V4H12V5H14V6H12V7H14V8H12V9H14V10H12V11H14V12H12V13H14V14H4V13H9V12H7V11H8V8H9V12H10V7H9V5H8V3H9V4H12Z" fill="#6B6B00"/>
<path d="M6 5V3H7V5H6Z" fill="#6B6B00"/>
<path d="M2 4V3H4V4H2Z" fill="#6B6B00"/>
<path d="M3 5H1V6H3V5Z" fill="#6B6B00"/>
<path d="M3 7H1V8H3V7Z" fill="#6B6B00"/>
<path d="M3 9H1V10H3V9Z" fill="#6B6B00"/>
<path d="M3 11H1V12H3V11Z" fill="#6B6B00"/>
<path d="M3 13H1V14H3V13Z" fill="#6B6B00"/>
</svg>
