<svg width="15" height="15" viewBox="0 0 15 15" fill="none" xmlns="http://www.w3.org/2000/svg">
<path fill-rule="evenodd" clip-rule="evenodd" d="M0.999985 2.99994V14.9999L4 15V14H11V15L14 15V2.99994H11V4H9V2.99994H8V0L7 0V2.99994H6V4H4V2.99994H0.999985Z" fill="#E7E794"/>
<path d="M3.99998 2.99994V3.99994H3V5H3.99998V13H3V14H3.99998V15H2V4V3L3.99998 2.99994Z" fill="#E79C21"/>
<path d="M14 3H12V14H11V15H14V3Z" fill="#E79C21"/>
<path fill-rule="evenodd" clip-rule="evenodd" d="M7 5H6V7H5V12H6V13H9V12H10V7H9V5H8V6H7V5ZM6 7V11H7V8H8V7H6Z" fill="#E79C21"/>
<path d="M0.999985 13.9999H3.99998V13H9V12H7V11H8V8H9V12H10V7H9V5H8V3H9V4H14V5H12V6H14V7H12V8H14V9H12V10H14V11H12V12H14V13H12V13.9999H14V15H11V13.9999H3.99998V15H0.999985V13.9999Z" fill="#6B6B00"/>
<path d="M3 13H0.999985V12H3V13Z" fill="#6B6B00"/>
<path d="M3 11H0.999985V10H3V11Z" fill="#6B6B00"/>
<path d="M3 9H0.999985V8H3V9Z" fill="#6B6B00"/>
<path d="M3 7H0.999985V6H3V7Z" fill="#6B6B00"/>
<path d="M3 5H0.999985V4H3V5Z" fill="#6B6B00"/>
<path d="M7 3H6V5H7V3Z" fill="#6B6B00"/>
</svg>
