<svg width="15" height="15" viewBox="0 0 15 15" fill="none" xmlns="http://www.w3.org/2000/svg">
<path d="M12 1H0V4H1V11H0V14H12V11H11V9H12V8H15V7H12V6H11V4H12V1Z" fill="#E7E794"/>
<path fill-rule="evenodd" clip-rule="evenodd" d="M10 5H11V7H9V8H10V9H8V10H2V9H1V6H2V5H8V6H10V5ZM3 8V6H7V7H4V8H3Z" fill="#E79C21"/>
<path d="M1 12H0V14H12V11H11V12H1Z" fill="#E79C21"/>
<path d="M0 2H1H11V1H12V4H11V3H10V4H2V3H1V4H0V2Z" fill="#E79C21"/>
<path d="M1 1V3H2V1H1Z" fill="#6B6B00"/>
<path d="M3 1V3H4V1H3Z" fill="#6B6B00"/>
<path d="M5 1V3H6V1H5Z" fill="#6B6B00"/>
<path d="M7 3V1H8V3H7Z" fill="#6B6B00"/>
<path d="M9 3V1H10V3H9Z" fill="#6B6B00"/>
<path d="M11 4V2H12V4H11Z" fill="#6B6B00"/>
<path d="M12 6H11V7H12V6Z" fill="#6B6B00"/>
<path d="M4 8H7V7H8V9H10V8H12V9H11V12H12V14H11V12H10V14H9V12H8V14H7V12H6V14H5V12H4V14H3V12H2V14H1V9H2V10H8V9H4V8Z" fill="#6B6B00"/>
</svg>
