<svg width="200" height="200" viewBox="0 0 200 200" fill="none" xmlns="http://www.w3.org/2000/svg">
<circle cx="143" cy="82" r="40" fill="#64FFDA"/>
<circle cx="91.5" cy="100.5" r="55.5" fill="#0A192F"/>
<path d="M94.4922 116H74.9453V85.4141H78.1562V113.258H94.4922V116ZM121.07 108.031C121.07 109.312 120.805 110.477 120.273 111.523C119.742 112.555 119.031 113.445 118.141 114.195C117.25 114.945 116.227 115.523 115.07 115.93C113.914 116.336 112.711 116.539 111.461 116.539C109.742 116.539 108.164 116.219 106.727 115.578C105.289 114.938 104.148 113.992 103.305 112.742V116H100.586V106.695H103.305C103.305 107.742 103.547 108.703 104.031 109.578C104.516 110.438 105.133 111.18 105.883 111.805C106.633 112.43 107.492 112.922 108.461 113.281C109.445 113.625 110.445 113.797 111.461 113.797C112.367 113.797 113.203 113.672 113.969 113.422C114.734 113.156 115.406 112.789 115.984 112.32C116.562 111.836 117.016 111.25 117.344 110.562C117.688 109.875 117.859 109.094 117.859 108.219C117.859 107.234 117.641 106.391 117.203 105.688C116.781 104.984 116.203 104.383 115.469 103.883C114.75 103.383 113.938 102.961 113.031 102.617C112.125 102.258 111.203 101.906 110.266 101.562C109.156 101.172 108.047 100.766 106.938 100.344C105.828 99.9062 104.836 99.3594 103.961 98.7031C103.086 98.0469 102.375 97.25 101.828 96.3125C101.281 95.3594 101.008 94.1797 101.008 92.7734C101.008 91.5234 101.273 90.4141 101.805 89.4453C102.336 88.4609 103.031 87.6328 103.891 86.9609C104.75 86.2891 105.75 85.7812 106.891 85.4375C108.031 85.0781 109.203 84.8984 110.406 84.8984C111.891 84.8984 113.258 85.2031 114.508 85.8125C115.773 86.4219 116.758 87.3516 117.461 88.6016V85.4141H120.297V94.1562H117.461C117.461 93.2344 117.266 92.375 116.875 91.5781C116.5 90.7656 115.984 90.0781 115.328 89.5156C114.672 88.9375 113.922 88.4844 113.078 88.1562C112.234 87.8125 111.344 87.6406 110.406 87.6406C109.578 87.6406 108.789 87.7344 108.039 87.9219C107.289 88.1094 106.633 88.4141 106.07 88.8359C105.508 89.2422 105.055 89.7734 104.711 90.4297C104.383 91.0859 104.219 91.8672 104.219 92.7734C104.219 93.5703 104.414 94.25 104.805 94.8125C105.211 95.375 105.75 95.875 106.422 96.3125C107.094 96.7344 107.867 97.125 108.742 97.4844C109.633 97.8281 110.539 98.1797 111.461 98.5391C112.617 98.9453 113.766 99.3984 114.906 99.8984C116.047 100.398 117.07 101 117.977 101.703C118.883 102.406 119.625 103.273 120.203 104.305C120.781 105.32 121.07 106.562 121.07 108.031Z" fill="#64FFDA"/>
<circle cx="47" cy="56" r="20" fill="#CCD6F6"/>
<circle cx="138" cy="156" r="9" fill="#0A192F"/>
<circle cx="47.5" cy="147.5" r="28.5" fill="#8892B0"/>
</svg>
